<svg width="30" height="30" viewBox="0 0 30 30" fill="none" xmlns="http://www.w3.org/2000/svg">
<path fill-rule="evenodd" clip-rule="evenodd" d="M0.585786 0.585786C1.36683 -0.195262 2.63317 -0.195262 3.41421 0.585786L15 12.1716L26.5858 0.585786C27.3668 -0.195262 28.6332 -0.195262 29.4142 0.585786C30.1953 1.36683 30.1953 2.63317 29.4142 3.41421L17.8284 15L29.4142 26.5858C30.1953 27.3668 30.1953 28.6332 29.4142 29.4142C28.6332 30.1953 27.3668 30.1953 26.5858 29.4142L15 17.8284L3.41421 29.4142C2.63317 30.1953 1.36683 30.1953 0.585786 29.4142C-0.195262 28.6332 -0.195262 27.3668 0.585786 26.5858L12.1716 15L0.585786 3.41421C-0.195262 2.63317 -0.195262 1.36683 0.585786 0.585786Z" fill="#343C6A"/>
</svg>
