<svg width="18" height="15" viewBox="0 0 18 15" fill="none" xmlns="http://www.w3.org/2000/svg">
<path fill-rule="evenodd" clip-rule="evenodd" d="M18 13.0998C18 13.6417 17.4801 14.081 16.8387 14.081L1.16129 14.081C0.519928 14.081 -6.78526e-08 13.6417 -4.37114e-08 13.0998C-1.95703e-08 12.5578 0.519928 12.1185 1.16129 12.1185L16.8387 12.1185C17.4801 12.1185 18 12.5578 18 13.0998Z" fill="#343C6A"/>
<path fill-rule="evenodd" clip-rule="evenodd" d="M18 7.2123C18 7.75423 17.5523 8.19355 17 8.19355L1 8.19355C0.447716 8.19355 -6.78525e-08 7.75423 -4.37114e-08 7.2123C-1.95703e-08 6.67037 0.447716 6.23106 1 6.23106L17 6.23106C17.5523 6.23106 18 6.67037 18 7.2123Z" fill="#343C6A"/>
<path fill-rule="evenodd" clip-rule="evenodd" d="M18 1.32483C18 1.86675 17.4801 2.30607 16.8387 2.30607L1.16129 2.30608C0.519928 2.30608 -6.78526e-08 1.86676 -4.37115e-08 1.32483C-1.95704e-08 0.782908 0.519928 0.34359 1.16129 0.34359L16.8387 0.343586C17.4801 0.343586 18 0.782903 18 1.32483Z" fill="#343C6A"/>
</svg>
